# Blender 3.6.1
# www.blender.org
o octahedron
v -0.122269 0.243933 -0.122888
v 0.000000 0.000014 -0.000003
v -0.746031 0.867695 -0.122888
v -0.989950 0.989964 -0.000003
v -0.122269 0.867695 -0.752983
v 0.000000 0.989964 -1.000003
v -0.746031 1.112233 -0.122888
v -0.122269 1.735995 -0.122888
v 0.000000 1.979914 -0.000003
v -0.122269 1.112233 -0.752983
v 0.746031 0.867695 -0.122888
v 0.989950 0.989964 -0.000003
v 0.122269 0.243933 -0.122888
v 0.122269 0.867695 -0.752983
v 0.122269 1.735995 -0.122888
v 0.746031 1.112233 -0.122888
v 0.122269 1.112233 -0.752983
v -0.006412 0.359790 -0.008195
v 0.000000 0.345268 -0.000003
v -0.006412 0.983552 -0.638290
v 0.000000 0.989964 -0.651244
v -0.630174 0.983552 -0.008195
v -0.644696 0.989964 -0.000003
v -0.006412 1.620138 -0.008195
v 0.000000 1.634660 -0.000003
v -0.630174 0.996376 -0.008195
v -0.006412 0.996376 -0.638290
v 0.006412 0.359790 -0.008195
v 0.630174 0.983552 -0.008195
v 0.644696 0.989964 -0.000003
v 0.006412 0.983552 -0.638290
v 0.630174 0.996376 -0.008195
v 0.006412 1.620138 -0.008195
v 0.006412 0.996376 -0.638290
v -0.746031 0.867695 0.122882
v -0.122269 0.243933 0.122882
v -0.122269 0.867695 0.752977
v 0.000000 0.989964 0.999997
v -0.122269 1.735995 0.122882
v -0.746031 1.112233 0.122882
v -0.122269 1.112233 0.752977
v 0.122269 0.243933 0.122882
v 0.746031 0.867695 0.122882
v 0.122269 0.867695 0.752977
v 0.746031 1.112233 0.122882
v 0.122269 1.735995 0.122882
v 0.122269 1.112233 0.752977
v -0.006412 0.359790 0.008190
v -0.630174 0.983552 0.008190
v -0.006412 0.983552 0.638285
v 0.000000 0.989964 0.651239
v -0.630174 0.996376 0.008190
v -0.006412 1.620138 0.008190
v -0.006412 0.996376 0.638285
v 0.630174 0.983552 0.008190
v 0.006412 0.359790 0.008190
v 0.006412 0.983552 0.638285
v 0.006412 1.620138 0.008190
v 0.630174 0.996376 0.008190
v 0.006412 0.996376 0.638285
vn -0.5793 -0.5793 -0.5735
vn -0.5793 0.5793 -0.5735
vn 0.5793 -0.5793 -0.5735
vn 0.5793 0.5793 -0.5735
vn 0.5793 0.5793 0.5735
vn 0.5793 -0.5793 0.5735
vn -0.5793 0.5793 0.5735
vn -0.5793 0.5793 0.5734
vn -0.5793 -0.5793 0.5735
vn -0.8151 0.4117 0.4075
vn 0.4117 -0.8151 0.4075
vn 0.4055 0.4055 -0.8192
vn -0.4117 -0.8151 0.4075
vn 0.8151 0.4117 0.4075
vn -0.4055 0.4055 -0.8192
vn 0.8151 -0.4117 0.4075
vn -0.4117 0.8151 0.4075
vn -0.4055 -0.4055 -0.8192
vn 0.4117 0.8151 0.4075
vn -0.8151 -0.4117 0.4075
vn 0.4055 -0.4055 -0.8192
vn -0.5793 -0.5793 -0.5734
vn -0.8151 0.4117 -0.4075
vn 0.4117 -0.8151 -0.4075
vn 0.4055 0.4055 0.8192
vn -0.4117 -0.8151 -0.4075
vn 0.8151 0.4117 -0.4075
vn -0.4055 0.4055 0.8192
vn 0.8151 -0.4117 -0.4075
vn -0.4117 0.8151 -0.4075
vn -0.4055 -0.4055 0.8192
vn 0.4117 0.8151 -0.4075
vn -0.8151 -0.4117 -0.4075
vn 0.4055 -0.4055 0.8192
s 0
f 1//1 2//1 3//1
f 3//1 2//1 4//1
f 3//1 4//1 5//1
f 5//1 4//1 6//1
f 5//1 6//1 1//1
f 1//1 6//1 2//1
f 7//2 4//2 8//2
f 8//2 4//2 9//2
f 8//2 9//2 10//2
f 10//2 9//2 6//2
f 10//2 6//2 7//2
f 7//2 6//2 4//2
f 11//3 12//3 13//3
f 13//3 12//3 2//3
f 13//3 2//3 14//3
f 14//3 2//3 6//3
f 14//3 6//3 11//3
f 11//3 6//3 12//3
f 15//4 9//4 16//4
f 16//4 9//4 12//4
f 16//4 12//4 17//4
f 17//4 12//4 6//4
f 17//4 6//4 15//4
f 15//4 6//4 9//4
f 18//5 19//5 20//5
f 20//5 19//5 21//5
f 20//5 21//5 22//5
f 22//5 21//5 23//5
f 22//5 23//5 18//5
f 18//5 23//5 19//5
f 24//6 25//6 26//6
f 26//6 25//6 23//6
f 26//6 23//6 27//6
f 27//6 23//6 21//6
f 27//6 21//6 24//6
f 24//6 21//6 25//6
f 28//7 19//7 29//7
f 29//7 19//7 30//7
f 29//7 30//7 31//7
f 31//8 30//8 21//8
f 31//7 21//7 28//7
f 28//7 21//7 19//7
f 32//9 30//9 33//9
f 33//9 30//9 25//9
f 33//9 25//9 34//9
f 34//9 25//9 21//9
f 34//9 21//9 32//9
f 32//9 21//9 30//9
f 5//10 1//10 20//10
f 20//10 1//10 18//10
f 3//11 5//11 22//11
f 22//11 5//11 20//11
f 1//12 3//12 18//12
f 18//12 3//12 22//12
f 14//13 11//13 31//13
f 31//13 11//13 29//13
f 13//14 14//14 28//14
f 28//14 14//14 31//14
f 11//15 13//15 29//15
f 29//15 13//15 28//15
f 17//16 15//16 34//16
f 34//16 15//16 33//16
f 16//17 17//17 32//17
f 32//17 17//17 34//17
f 15//18 16//18 33//18
f 33//18 16//18 32//18
f 10//19 7//19 27//19
f 27//19 7//19 26//19
f 8//20 10//20 24//20
f 24//20 10//20 27//20
f 7//21 8//21 26//21
f 26//21 8//21 24//21
f 35//9 4//9 36//9
f 36//9 4//9 2//9
f 36//9 2//9 37//9
f 37//9 2//9 38//9
f 37//9 38//9 35//9
f 35//9 38//9 4//9
f 39//7 9//7 40//7
f 40//7 9//7 4//7
f 40//7 4//7 41//7
f 41//7 4//7 38//7
f 41//7 38//7 39//7
f 39//7 38//7 9//7
f 42//6 2//6 43//6
f 43//6 2//6 12//6
f 43//6 12//6 44//6
f 44//6 12//6 38//6
f 44//6 38//6 42//6
f 42//6 38//6 2//6
f 45//5 12//5 46//5
f 46//5 12//5 9//5
f 46//5 9//5 47//5
f 47//5 9//5 38//5
f 47//5 38//5 45//5
f 45//5 38//5 12//5
f 48//4 19//4 49//4
f 49//4 19//4 23//4
f 49//4 23//4 50//4
f 50//4 23//4 51//4
f 50//4 51//4 48//4
f 48//4 51//4 19//4
f 52//3 23//3 53//3
f 53//3 23//3 25//3
f 53//3 25//3 54//3
f 54//3 25//3 51//3
f 54//3 51//3 52//3
f 52//3 51//3 23//3
f 55//2 30//2 56//2
f 56//2 30//2 19//2
f 56//2 19//2 57//2
f 57//2 19//2 51//2
f 57//2 51//2 55//2
f 55//2 51//2 30//2
f 58//1 25//1 59//1
f 59//1 25//1 30//1
f 59//1 30//1 60//1
f 60//1 30//1 51//1
f 60//22 51//22 58//22
f 58//1 51//1 25//1
f 36//23 37//23 48//23
f 48//23 37//23 50//23
f 37//24 35//24 50//24
f 50//24 35//24 49//24
f 35//25 36//25 49//25
f 49//25 36//25 48//25
f 43//26 44//26 55//26
f 55//26 44//26 57//26
f 44//27 42//27 57//27
f 57//27 42//27 56//27
f 42//28 43//28 56//28
f 56//28 43//28 55//28
f 46//29 47//29 58//29
f 58//29 47//29 60//29
f 47//30 45//30 60//30
f 60//30 45//30 59//30
f 45//31 46//31 59//31
f 59//31 46//31 58//31
f 40//32 41//32 52//32
f 52//32 41//32 54//32
f 41//33 39//33 54//33
f 54//33 39//33 53//33
f 39//34 40//34 53//34
f 53//34 40//34 52//34
